# xmcd
#
# Track frame offsets:
#	150
#	32483
#	48614
#	135970
#	188545
#	219935
#	247377
#	281587
#	301092
#
# Disc length: 4487 seconds
#
# Revision: 1
# Processed by: cddbd v1.5.2PL0 Copyright (c) Steve Scherf et al.
# Submitted via: audiograbber 1.83.01
#
DISCID=77118509
DTITLE=Robert Noll Blues Mission - Live - Retrospect Volume 1 (1992-1993)
DYEAR=2006
DGENRE=Blues
TTITLE0=Hello Everybody
TTITLE1=I Wish You Could See Me Now
TTITLE2=You Was Wrong - Mountain Top
TTITLE3=Mission Boogie
TTITLE4=My Babe
TTITLE5=Cold Women With Warm Hearts
TTITLE6=Fade My Blues
TTITLE7=Going Down
TTITLE8=See Ya Later
EXTD=Recordings of live gigs between January 13th, 1992 and February 17th, 1993
EXTD=\nNo Cover Productions\nRobert Noll's Website: http:web.mac/robertnoll/We
EXTD=b/Zones\nemail: Psytex@mac.con
EXTT0=
EXTT1=
EXTT2=
EXTT3=
EXTT4=
EXTT5=
EXTT6=
EXTT7=
EXTT8=
PLAYORDER=
